<svg width="40" height="40" fill="none" xmlns="http://www.w3.org/2000/svg"><circle cx="20" cy="20" r="20" fill="#3861FB"/><path d="M27.39 21.951c-.353.22-.77.248-1.087.072-.403-.224-.624-.748-.624-1.478v-2.182c0-1.053-.423-1.803-1.13-2.005-1.198-.344-2.1 1.1-2.438 1.642l-2.113 3.376V17.25c-.024-.949-.337-1.517-.93-1.688-.394-.113-.982-.068-1.553.794l-4.735 7.49A8.132 8.132 0 0 1 11.818 20c0-4.512 3.67-8.182 8.18-8.182s8.18 3.67 8.18 8.182l.002.022v.022c.042.874-.245 1.57-.79 1.908zm2.606-1.95v-.046C29.97 14.461 25.495 10 19.997 10 14.484 10 10 14.486 10 20s4.485 10 9.998 10c2.53 0 4.944-.947 6.797-2.667A.908.908 0 1 0 25.56 26a8.152 8.152 0 0 1-5.561 2.182 8.16 8.16 0 0 1-6.087-2.723l4.27-6.755v3.114c0 1.496.588 1.98 1.082 2.12.494.142 1.249.045 2.042-1.223l2.348-3.75c.075-.122.145-.226.208-.316v1.896c0 1.398.568 2.516 1.56 3.067.892.497 2.015.452 2.93-.117 1.11-.69 1.707-1.962 1.645-3.495z" fill="#fff"/></svg>